# xmcd CD database file
#
# Track frame offsets:
#	150
#	19750
#	37898
#
# Disc length: 800 seconds
#
# Revision: 14
# Processed by: cddbd v1.5.1PL2 Copyright (c) Steve Scherf et al.
# Submitted via: CDex 1.51
#
DISCID=17031e03
DTITLE=ポルノグラフィティ - ジョバイロ
DYEAR=2005
DGENRE=JPop
TTITLE0=ジョバイロ
TTITLE1=DON'T CALL ME CRAZY
TTITLE2=Free and Freedom
EXTD=YEAR: 2005
EXTT0=
EXTT1=
EXTT2=
PLAYORDER=
